<svg width="264" height="248" viewBox="0 0 264 248" fill="none" xmlns="http://www.w3.org/2000/svg">
<path fill-rule="evenodd" clip-rule="evenodd" d="M25 70L120 20L215 70V90H25V70ZM120 42.6001L172.1 70.0001H67.9L120 42.6001ZM50 110H70V180H50V110ZM110 180V110H130V180H110ZM215 220V200H25V220H215ZM170 110H190V180H170V110Z" fill="#0C41B8"/>
<path fill-rule="evenodd" clip-rule="evenodd" d="M235.875 161.3L221.725 175.45L193.425 147.15L207.575 133L235.875 161.3ZM186.325 154.2L172.175 168.35L242.875 239.05L257.025 224.9L186.325 154.2ZM210.975 233H150.975V243H210.975V233ZM193.425 203.7L165.125 175.4L150.975 189.55L179.275 217.85L193.425 203.7Z" fill="#263348"/>
</svg>
