<svg width="240" height="240" viewBox="0 0 240 240" fill="none" xmlns="http://www.w3.org/2000/svg">
<g id="offline_bolt_24px">
<path id="icon/action/offline_bolt_24px" fill-rule="evenodd" clip-rule="evenodd" d="M120 20.2002C64.8999 20.2002 20.2 64.9002 20.2 120C20.2 175.1 64.8999 219.8 120 219.8C175.1 219.8 219.8 175.1 219.8 120C219.8 64.9002 175.1 20.2002 120 20.2002ZM120 199.8C76 199.8 40.2 164 40.2 120C40.2 76.0002 76 40.2002 120 40.2002C164 40.2002 199.8 76.0002 199.8 120C199.8 164 164 199.8 120 199.8ZM82.5 135L127.5 50V105H157.5L113.9 190V135H82.5Z" fill="#0C41B8"/>
</g>
</svg>
