<svg width="240" height="240" viewBox="0 0 240 240" fill="none" xmlns="http://www.w3.org/2000/svg">
<g id="category_24px">
<path id="icon/maps/category_24px" fill-rule="evenodd" clip-rule="evenodd" d="M60 110L115 20.0004L170 110H60ZM134.3 90.0006L115 58.4006L95.5999 90.0006H134.3ZM170 130.001C145.1 130.001 125 150.101 125 175.001C125 199.901 145.1 220.001 170 220.001C194.9 220.001 215 199.901 215 175.001C215 150.101 194.9 130.001 170 130.001ZM145 175C145 188.8 156.2 200 170 200C183.8 200 195 188.8 195 175C195 161.2 183.8 150 170 150C156.2 150 145 161.2 145 175ZM25 215H105V135H25V215ZM85 155H45V195H85V155Z" fill="#0C41B8"/>
</g>
</svg>
